<?xml version='1.0' encoding='utf-8'?>
<svg xmlns="http://www.w3.org/2000/svg" viewBox="0 0 1e3 750"> <defs> <linearGradient id="a" x1="-750" x2="0" gradientUnits="userSpaceOnUse"> <stop stop-color="#009c00" offset="0"/> <stop stop-color="#38ff38" offset="1"/> </linearGradient> </defs> <path transform="rotate(-90)" d="m-750 0h750v1e3h-750z" fill="url(#a)" fill-rule="evenodd"/> <g fill-opacity=".5"> <path transform="matrix(2.7254 0 0 3.066 -285.35 -402.08)" d="m159.65 253.45a1.4677 1.3046 0 1 1-2.9354 0 1.4677 1.3046 0 1 1 2.9354 0z" fill="#fff" fill-rule="evenodd"/> <path d="m66.119 522.44h121.17v-291.55h-120.45" fill="none" stroke="#fff" stroke-width="3.0052"/> <path d="m67.06 307.54h42.207l-1.3688 134.14-42.432-2e-5" fill="none" stroke="#fff" stroke-width="3.0052"/> <path d="m64.835 348.61h-21.9v53.382l21.9-2e-5" fill="none" stroke="#fff" stroke-width="3.0052"/> <path d="m187.06 427.34c38.325-22.242 36.793-82.351-0.16337-104.25" fill="none" stroke="#fff" stroke-width="3.0052"/> <path d="m66.892 58.792s8.0938-1.9306 10.099-10.396" fill="none" stroke="#fff" stroke-width="3.0052"/> <path d="m76.35 702.94s-1.9306-8.0938-10.396-10.099" fill="none" stroke="#fff" stroke-width="3.0052"/> <path d="m938.01 692.05s-8.0938 1.9306-10.099 10.396" fill="none" stroke="#fff" stroke-width="3.0052"/> <path d="m66.579 702.43v-654.27l870.54 1.3688 1.3688 652.9h-871.9z" fill="none" stroke="#fff" stroke-width="3.0052"/> <path transform="matrix(1.9081 0 0 1.8714 -141.37 -101.07)" d="m370.97 254.39a34.843 35.526 0 1 1-69.686 0 34.843 35.526 0 1 1 69.686 0z" fill="none" stroke="#fff" stroke-linejoin="round" stroke-width="1.6054"/> <path d="m938.03 522.6-118.88-0.16336v-291.55h118.33" fill="none" stroke="#fff" stroke-width="3.0052"/> <path d="m938.23 307.54h-41.063l1.3688 134.14 39.491-2e-5" fill="none" stroke="#fff" stroke-width="3.0052"/> <path d="m937.64 348.61h23.861v53.382l-23.371-2e-5" fill="none" stroke="#fff" stroke-width="3.0052"/> <path d="m818.88 427.34c-38.325-22.242-36.793-81.534 0.16335-103.43" fill="none" stroke="#fff" stroke-width="3.0052"/> <path d="m500 48.163v652.9" fill="none" stroke="#fff" stroke-width="3.0052"/> <path d="m925.8 50.03s1.9306 8.0938 10.396 10.099" fill="none" stroke="#fff" stroke-width="3.0052"/> <path transform="matrix(3.7736 0 0 2.9731 -1077.9 -378.9)" d="m514.92 253.57a1.06 1.3454 0 1 1-2.12 0 1.06 1.3454 0 1 1 2.12 0z" fill="#fff" fill-rule="evenodd"/> <path transform="matrix(2.9274 0 0 2.9274 -484 -365.72)" d="m337.5 253.03a1.3664 1.3664 0 1 1-2.7328 0 1.3664 1.3664 0 1 1 2.7328 0z" fill="#fff" fill-rule="evenodd"/> </g> </svg>